<svg xmlns="http://www.w3.org/2000/svg" width="30.454" height="28" viewBox="0 0 30.454 28"><defs><style>.a{fill:#e0693d;fill-rule:evenodd;}</style></defs><g transform="translate(-1.123 -2.716)"><path class="a" d="M16.68,7.125l12.18,12.18v8.541a3.045,3.045,0,0,1-3.045,3.045H7.545A3.045,3.045,0,0,1,4.5,27.846V19.305Zm10.15-1.61V12.62l-4.06-4.06V5.515A1.015,1.015,0,0,1,23.786,4.5h2.03A1.015,1.015,0,0,1,26.831,5.515Z" transform="translate(-0.33 -0.174)"/><path class="a" d="M14.915,3.311a2.03,2.03,0,0,1,2.87,0L31.279,16.8a1.016,1.016,0,1,1-1.437,1.437L16.35,4.746,2.858,18.239A1.016,1.016,0,0,1,1.421,16.8Z"/></g></svg>