<svg xmlns="http://www.w3.org/2000/svg" width="30" height="28" viewBox="0 0 30 28"><defs><style>.a{fill:#e0693d;}</style></defs><path class="a" d="M22.391,3.891a.49.49,0,0,1,0,.718l-9.782,9.782a.49.49,0,0,1-.718,0L10.61,13.11a.49.49,0,0,1,0-.718L11.3,11.7A5.874,5.874,0,0,1,10.024,8.47a5.733,5.733,0,0,1,.726-3.361A3.835,3.835,0,0,0,8,4,3.856,3.856,0,0,0,5.172,5.172,3.85,3.85,0,0,0,4,8V28H0V8A7.8,7.8,0,0,1,.632,4.9,8.04,8.04,0,0,1,2.344,2.344,8.1,8.1,0,0,1,4.9.632,7.75,7.75,0,0,1,8,0a7.914,7.914,0,0,1,5.734,2.437,5.786,5.786,0,0,1,3.078-.383A5.9,5.9,0,0,1,19.7,3.3l.688-.687a.49.49,0,0,1,.718,0ZM21,8a1.013,1.013,0,1,1-.7.3A.963.963,0,0,1,21,8Zm4,2a1.013,1.013,0,1,1,.7-.3A.963.963,0,0,1,25,10Zm4-2a1.013,1.013,0,1,1-.7.3A.963.963,0,0,1,29,8ZM19,10a1.013,1.013,0,1,1-.7.3A.963.963,0,0,1,19,10Zm3,1a1.013,1.013,0,1,1,.3.7A.963.963,0,0,1,22,11Zm5-1a1.013,1.013,0,1,1-.7.3A.963.963,0,0,1,27,10ZM17,12a1.013,1.013,0,1,1-.7.3A.963.963,0,0,1,17,12Zm4,2a1.013,1.013,0,1,1,.7-.3A.963.963,0,0,1,21,14Zm4-2a1.013,1.013,0,1,1-.7.3A.963.963,0,0,1,25,12Zm-6,4a1.013,1.013,0,1,1,.7-.3A.963.963,0,0,1,19,16Zm4-2a1.013,1.013,0,1,1-.7.3A.963.963,0,0,1,23,14Zm-6,2a1.013,1.013,0,1,1-.7.3A.963.963,0,0,1,17,16Zm4,0a1.013,1.013,0,1,1-.7.3A.963.963,0,0,1,21,16Zm-2,2a1.013,1.013,0,1,1-.7.3A.963.963,0,0,1,19,18Zm-2,2a1.013,1.013,0,1,1-.7.3A.963.963,0,0,1,17,20Z"/></svg>