<svg xmlns="http://www.w3.org/2000/svg" width="28" height="28" viewBox="0 0 28 28">
  <g id="vuesax_bold_edit" data-name="vuesax/bold/edit" transform="translate(-620 -252)">
    <g id="edit" transform="translate(620 252)">
      <path id="Vector" d="M16.555,0H6.778C2.532,0,0,2.532,0,6.778v9.765c0,4.258,2.532,6.79,6.778,6.79h9.765c4.247,0,6.778-2.532,6.778-6.778V6.778C23.333,2.532,20.8,0,16.555,0ZM10.442,18.095a3.007,3.007,0,0,1-1.447.735l-2.87.408a2.86,2.86,0,0,1-.315.023,1.727,1.727,0,0,1-1.237-.478,1.781,1.781,0,0,1-.455-1.563l.408-2.87A2.862,2.862,0,0,1,5.262,12.9l5.2-5.2c.093.245.187.49.315.77.117.245.245.5.385.735a5.838,5.838,0,0,0,.35.525,4.35,4.35,0,0,0,.373.49,1.59,1.59,0,0,0,.128.163,7.628,7.628,0,0,0,.922.922,1.07,1.07,0,0,0,.152.14c.175.14.35.28.5.385a4.361,4.361,0,0,0,.572.373c.233.14.49.268.747.4s.513.222.758.3Zm7.49-7.49L16.858,11.69a.362.362,0,0,1-.257.1.29.29,0,0,1-.1-.012,7.235,7.235,0,0,1-4.935-4.935.347.347,0,0,1,.093-.35L12.74,5.413c1.773-1.773,3.465-1.738,5.2,0a3.744,3.744,0,0,1,1.318,2.625A3.784,3.784,0,0,1,17.932,10.6Z" transform="translate(2.333 2.333)" fill="#212529"/>
      <path id="Vector-2" data-name="Vector" d="M0,0H28V28H0Z" transform="translate(28 28) rotate(180)" fill="none" opacity="0"/>
    </g>
  </g>
</svg>
