<svg id="vuesax_bold_building-3" data-name="vuesax/bold/building-3" xmlns="http://www.w3.org/2000/svg" width="28" height="28" viewBox="0 0 28 28">
  <g id="building-3">
    <path id="Vector" d="M0,0H28V28H0Z" fill="none" opacity="0"/>
    <path id="Vector-2" data-name="Vector" d="M14,5.445a2.311,2.311,0,0,0-1.038-1.937L8.295.394a2.326,2.326,0,0,0-2.59,0L1.038,3.509A2.339,2.339,0,0,0,0,5.445v6.627a.578.578,0,0,0,.583.583H13.417A.578.578,0,0,0,14,12.072ZM7,9.739A2.042,2.042,0,1,1,9.042,7.7,2.051,2.051,0,0,1,7,9.739Z" transform="translate(3.5 2.803)" fill="#212529"/>
    <path id="Vector-3" data-name="Vector" d="M24.208,11.235H22.727v-3.5A2.768,2.768,0,0,0,24.64,5.11V2.777a2.777,2.777,0,0,0-5.553,0V5.11a2.775,2.775,0,0,0,1.878,2.613v3.512H16.042v-7a.578.578,0,0,0-.583-.583H2.625a.578.578,0,0,0-.583.583v7H.875a.875.875,0,0,0,0,1.75H21.793c.023,0,.035.012.058.012s.035-.012.058-.012h2.3a.875.875,0,0,0,0-1.75ZM8.167,7.735a.875.875,0,0,1,1.75,0v3.5H8.167Z" transform="translate(1.458 13.557)" fill="#212529"/>
  </g>
</svg>
