<svg xmlns="http://www.w3.org/2000/svg" width="28" height="28" viewBox="0 0 28 28">
  <g id="vuesax_bold_moneys" data-name="vuesax/bold/moneys" transform="translate(-108 -316)">
    <g id="moneys" transform="translate(108 316)">
      <path id="Vector" d="M0,0H28V28H0Z" fill="none" opacity="0"/>
      <path id="Vector-2" data-name="Vector" d="M20.37,3.64C19.868,1.108,17.99,0,15.377,0H5.133C2.053,0,0,1.54,0,5.133v6.008c0,2.59,1.062,4.107,2.812,4.76a4.537,4.537,0,0,0,.828.222,6.822,6.822,0,0,0,1.493.152H15.388c3.08,0,5.133-1.54,5.133-5.133V5.133A6.6,6.6,0,0,0,20.37,3.64ZM4.457,9.893a.875.875,0,0,1-1.75,0v-3.5a.875.875,0,0,1,1.75,0Zm5.8,1.33a3.08,3.08,0,1,1,3.08-3.08A3.077,3.077,0,0,1,10.255,11.223Zm7.537-1.33a.875.875,0,1,1-1.75,0v-3.5a.875.875,0,1,1,1.75,0Z" transform="translate(1.995 4.107)" fill="#212529"/>
      <path id="Vector-3" data-name="Vector" d="M19.228,3.838V9.846c0,3.593-2.053,5.145-5.145,5.145H3.84a6.567,6.567,0,0,1-2.333-.385,3.934,3.934,0,0,1-1.412-.863.3.3,0,0,1,.245-.513H10.583c4.317,0,6.883-2.567,6.883-6.872V.338A.3.3,0,0,1,17.98.093,5.241,5.241,0,0,1,19.228,3.838Z" transform="translate(6.788 8.902)" fill="#212529"/>
    </g>
  </g>
</svg>
