<svg xmlns="http://www.w3.org/2000/svg" width="44" height="44" viewBox="0 0 44 44"><defs><style>.a{fill:#1ebf99;}.b{fill:none;opacity:0;}</style></defs><g transform="translate(-172 -572)"><g transform="translate(172 572)"><path class="a" d="M3.355,0V5.243L1.5,4.6C.568,4.272,0,3.96,0,2.365A2.276,2.276,0,0,1,2.163,0Z" transform="translate(17.27 14.813)"/><path class="a" d="M3.355,2.878A2.276,2.276,0,0,1,1.192,5.243H0V0L1.852.642C2.787.972,3.355,1.283,3.355,2.878Z" transform="translate(23.375 23.943)"/><path class="a" d="M26.015,0H10.652C3.978,0,0,3.978,0,10.652V26.015c0,6.673,3.978,10.652,10.652,10.652H26.015c6.673,0,10.652-3.978,10.652-10.652V10.652C36.667,3.978,32.688,0,26.015,0ZM22.477,18.333a4.553,4.553,0,0,1,3.337,4.822A5.018,5.018,0,0,1,20.9,28.27H19.708v1.063a1.375,1.375,0,0,1-2.75,0V28.27H16.3A5.566,5.566,0,0,1,10.853,22.6a1.375,1.375,0,0,1,2.75,0,2.812,2.812,0,0,0,2.7,2.915h.66V19.305l-2.768-.972a4.553,4.553,0,0,1-3.337-4.822A5.018,5.018,0,0,1,15.767,8.4h1.192V7.333a1.375,1.375,0,0,1,2.75,0V8.4h.66a5.566,5.566,0,0,1,5.445,5.665,1.375,1.375,0,0,1-2.75,0,2.812,2.812,0,0,0-2.695-2.915h-.66v6.215Z" transform="translate(3.667 3.667)"/><path class="b" d="M0,0H44V44H0Z"/></g></g></svg>