<svg xmlns="http://www.w3.org/2000/svg" width="28" height="28" viewBox="0 0 28 28">
  <g id="vuesax_bold_document-copy" data-name="vuesax/bold/document-copy" transform="translate(-684 -188)">
    <g id="document-copy" transform="translate(684 188)">
      <path id="Vector" d="M15.75,7.175H13.218A3.767,3.767,0,0,1,9.45,3.407V.875A.874.874,0,0,0,8.575,0h-3.7A4.62,4.62,0,0,0,0,4.877v7.747A4.62,4.62,0,0,0,4.877,17.5h6.872a4.62,4.62,0,0,0,4.877-4.877V8.05A.874.874,0,0,0,15.75,7.175Z" transform="translate(2.333 8.167)" fill="#212529"/>
      <path id="Vector-2" data-name="Vector" d="M11.737,0H4.865A4.6,4.6,0,0,0,0,4.678c.07,0,.128-.012.2-.012H7.07a4.62,4.62,0,0,1,4.877,4.877V17.3c0,.07-.012.128-.012.187a4.588,4.588,0,0,0,4.678-4.853V4.877A4.62,4.62,0,0,0,11.737,0Z" transform="translate(9.053 2.333)" fill="#212529"/>
      <path id="Vector-3" data-name="Vector" d="M.98.172A.57.57,0,0,0,0,.557V3.614A2.381,2.381,0,0,0,2.415,5.947c.828.012,1.983.012,2.975.012A.548.548,0,0,0,5.8,5.026C4.527,3.754,2.263,1.479.98.172Z" transform="translate(12.997 8.169)" fill="#212529"/>
      <path id="Vector-4" data-name="Vector" d="M0,0H28V28H0Z" transform="translate(28 28) rotate(180)" fill="none" opacity="0"/>
    </g>
  </g>
</svg>
