<svg xmlns="http://www.w3.org/2000/svg" width="28" height="28" viewBox="0 0 28 28">
  <g id="vuesax_bold_send-2" data-name="vuesax/bold/send-2" transform="translate(-300 -316)">
    <g id="send-2" transform="translate(300 316)">
      <path id="Vector" d="M15.846.463,5.311,3.963c-7.082,2.368-7.082,6.23,0,8.587l3.127,1.038,1.038,3.127c2.357,7.082,6.23,7.082,8.587,0L21.575,6.191C23.138,1.466,20.571-1.112,15.846.463Zm.373,6.277L11.786,11.2a.873.873,0,0,1-1.237,0,.88.88,0,0,1,0-1.237L14.983,5.5A.874.874,0,1,1,16.22,6.739Z" transform="translate(2.984 2.991)" fill="#212529"/>
      <path id="Vector-2" data-name="Vector" d="M0,0H28V28H0Z" transform="translate(28 28) rotate(180)" fill="none" opacity="0"/>
    </g>
  </g>
</svg>
