<svg xmlns="http://www.w3.org/2000/svg" width="35.636" height="28" viewBox="0 0 35.636 28"><defs><style>.a{fill:#e0693d;}</style></defs><g transform="translate(-2.25 -5.624)"><path class="a" d="M34.067,16.283a6.319,6.319,0,0,0-2.545-.533H8.613A6.365,6.365,0,0,0,2.25,22.113v8.909a1.273,1.273,0,1,0,2.545,0v-.637a.645.645,0,0,1,.637-.637H34.7a.645.645,0,0,1,.637.637v.637a1.273,1.273,0,1,0,2.545,0V22.113a6.37,6.37,0,0,0-3.818-5.831Z" transform="translate(0 1.329)"/><path class="a" d="M29.17,5.625H10.08A4.455,4.455,0,0,0,5.625,10.08v5.728a.318.318,0,0,0,.406.305,7.6,7.6,0,0,1,2.139-.307h.336a.318.318,0,0,0,.318-.283,2.545,2.545,0,0,1,2.528-2.263h4.455a2.545,2.545,0,0,1,2.53,2.262.318.318,0,0,0,.318.283H20.6a.318.318,0,0,0,.318-.283,2.545,2.545,0,0,1,2.524-2.263H27.9a2.545,2.545,0,0,1,2.53,2.262.318.318,0,0,0,.318.283h.334a7.6,7.6,0,0,1,2.139.307.318.318,0,0,0,.406-.307V10.079a4.455,4.455,0,0,0-4.455-4.455Z" transform="translate(0.443)"/></g></svg>