<svg xmlns="http://www.w3.org/2000/svg" width="33.708" height="32.496" viewBox="0 0 33.708 32.496"><defs><style>.a{fill:#cc2229;}</style></defs><path class="a" d="M7,64.369V86.027a5.43,5.43,0,0,0,5.419,5.419h8.429a5.43,5.43,0,0,0,5.419-5.419V82.519a1.073,1.073,0,0,0-2.147,0v3.508a3.288,3.288,0,0,1-3.281,3.281h-8.42a3.288,3.288,0,0,1-3.281-3.281V64.369a3.288,3.288,0,0,1,3.281-3.281h8.429a3.288,3.288,0,0,1,3.281,3.281v3.508a1.073,1.073,0,1,0,2.147,0V64.369a5.43,5.43,0,0,0-5.419-5.419H12.419A5.424,5.424,0,0,0,7,64.369Z" transform="translate(-7 -58.95)"/><path class="a" d="M221.928,165.416a1.074,1.074,0,0,0,1.518,0l7.321-7.321a1.064,1.064,0,0,0,0-1.51l-7.321-7.321a1.067,1.067,0,1,0-1.51,1.51l5.5,5.5H207.373a1.073,1.073,0,1,0,0,2.147h20.052l-5.5,5.5A1.053,1.053,0,0,0,221.928,165.416Z" transform="translate(-197.374 -141.097)"/></svg>