<svg xmlns="http://www.w3.org/2000/svg" width="44" height="44" viewBox="0 0 44 44"><defs><style>.a{fill:#1ebf99;}.b{fill:none;opacity:0;}</style></defs><g transform="translate(-428 -188)"><path class="a" d="M32.083,12.283C30.158,3.813,22.77,0,16.28,0h-.018C9.79,0,2.383,3.795.458,12.265c-2.145,9.46,3.648,17.472,8.892,22.513a9.94,9.94,0,0,0,13.842,0C28.435,29.737,34.228,21.743,32.083,12.283Zm-15.8,9.185a5.775,5.775,0,1,1,5.775-5.775A5.774,5.774,0,0,1,16.28,21.468Z" transform="translate(433.72 191.208)"/><path class="b" d="M0,0H44V44H0Z" transform="translate(428 188)"/><path class="b" d="M0,0H44V44H0Z" transform="translate(472 232) rotate(180)"/></g></svg>